<svg xmlns="http://www.w3.org/2000/svg" width="172" height="150" viewBox="0 0 172 150" version="1.1"><path d="M 68.200 9.200 C 67.540 9.860, 67 11.310, 67 12.423 C 67 13.564, 69.711 17.182, 73.221 20.723 L 79.442 27 73.141 33.358 C 67.885 38.660, 66.894 40.196, 67.170 42.608 C 67.417 44.776, 68.098 45.584, 69.887 45.837 C 71.721 46.097, 73.856 44.605, 79.112 39.389 L 85.950 32.604 91.561 38.804 C 94.647 42.215, 98.265 45.279, 99.599 45.614 C 100.952 45.954, 102.684 45.677, 103.513 44.989 C 104.331 44.310, 105 43.034, 105 42.153 C 105 41.271, 101.975 37.501, 98.277 33.775 L 91.554 27 98.277 20.225 C 101.975 16.499, 105 12.764, 105 11.925 C 105 11.086, 104.460 9.860, 103.800 9.200 C 103.140 8.540, 101.775 8, 100.766 8 C 99.757 8, 95.920 10.924, 92.239 14.498 L 85.546 20.996 78.998 14.498 C 75.397 10.924, 71.764 8, 70.925 8 C 70.086 8, 68.860 8.540, 68.200 9.200 M 32.020 51.250 C 29.598 52.487, 26.240 55.229, 24.558 57.343 C 21.701 60.933, 21.500 61.731, 21.500 69.500 C 21.500 77.269, 21.701 78.067, 24.558 81.657 C 26.240 83.771, 29.598 86.513, 32.020 87.750 C 34.442 88.987, 38.016 89.997, 39.962 89.994 C 41.908 89.991, 45.174 89.524, 47.219 88.956 C 49.264 88.388, 52.322 86.759, 54.013 85.336 C 55.704 83.913, 58.015 80.932, 59.147 78.711 C 60.788 75.496, 61.129 73.293, 60.824 67.893 C 60.501 62.170, 59.969 60.519, 57.413 57.306 C 55.747 55.213, 52.402 52.487, 49.980 51.250 C 47.310 49.886, 43.774 49, 41 49 C 38.226 49, 34.690 49.886, 32.020 51.250 M 128.007 50.593 C 126.086 51.426, 123.455 53.096, 122.160 54.304 C 120.865 55.512, 118.949 58.170, 117.903 60.210 C 116.703 62.549, 116 65.982, 116 69.500 C 116 73.065, 116.706 76.464, 117.956 78.914 C 119.032 81.023, 121.302 83.918, 123.002 85.348 C 124.701 86.778, 127.932 88.443, 130.181 89.049 C 132.431 89.655, 136.397 89.858, 138.993 89.501 C 141.590 89.144, 145.077 88.023, 146.742 87.011 C 148.406 85.999, 151.024 83.525, 152.558 81.513 C 154.571 78.873, 155.472 76.358, 155.794 72.474 C 156.039 69.514, 155.939 65.487, 155.571 63.525 C 155.203 61.563, 153.465 58.321, 151.709 56.322 C 149.954 54.322, 146.713 51.867, 144.509 50.865 C 142.304 49.863, 138.475 49.052, 136 49.061 C 133.525 49.071, 129.928 49.760, 128.007 50.593 M 23.962 97.751 C 20.433 99.595, 17.600 102.092, 15.376 105.320 C 13.550 107.969, 11.596 111.793, 11.034 113.818 C 10.471 115.843, 10.009 122.043, 10.006 127.595 C 10.001 136.109, 10.286 137.949, 11.829 139.345 C 13.437 140.801, 16.973 141, 41.174 141 C 67.170 141, 68.787 140.892, 70.452 139.053 C 71.975 137.370, 72.163 135.507, 71.839 125.303 C 71.496 114.497, 71.217 113.050, 68.533 108.176 C 66.921 105.248, 63.956 101.549, 61.945 99.956 C 59.934 98.363, 57.069 96.596, 55.579 96.030 C 54.089 95.463, 47.550 95, 41.049 95 C 30.095 95, 28.842 95.202, 23.962 97.751 M 120.230 96.982 C 117.882 98.048, 114.569 100.400, 112.869 102.210 C 111.169 104.019, 108.865 107.509, 107.748 109.964 C 106.241 113.276, 105.590 117.305, 105.225 125.580 C 104.766 135.983, 104.876 136.876, 106.866 138.866 C 108.938 140.938, 109.774 141, 135.777 141 C 158.964 141, 162.869 140.780, 164.894 139.362 C 167.171 137.767, 167.221 137.407, 166.800 125.612 C 166.451 115.825, 165.966 112.732, 164.272 109.500 C 163.120 107.300, 160.674 103.970, 158.838 102.099 C 157.002 100.228, 153.700 97.876, 151.500 96.871 C 148.366 95.439, 145.011 95.044, 136 95.044 C 126.758 95.044, 123.662 95.424, 120.230 96.982" stroke="none" fill="#040404" fill-rule="evenodd"/></svg>