<svg xmlns="http://www.w3.org/2000/svg" width="181" height="153" viewBox="0 0 181 153" version="1.1"><path d="M 81.500 7.886 C 79.300 8.899, 75.677 11.587, 73.449 13.860 C 71.172 16.183, 68.596 20.222, 67.568 23.082 C 66.225 26.816, 65.883 29.771, 66.282 34.178 C 66.661 38.348, 67.704 41.611, 69.693 44.843 C 71.269 47.404, 74.724 50.956, 77.372 52.736 C 80.019 54.516, 84.051 56.475, 86.332 57.089 C 88.613 57.704, 92.434 57.938, 94.822 57.611 C 97.210 57.284, 100.815 56.234, 102.832 55.279 C 104.850 54.323, 108.352 51.692, 110.617 49.431 C 113.227 46.824, 115.377 43.381, 116.492 40.023 C 117.696 36.398, 118.081 33.074, 117.711 29.491 C 117.414 26.611, 116.272 22.510, 115.173 20.378 C 114.074 18.245, 111.673 15.063, 109.838 13.307 C 108.002 11.550, 104.475 9.198, 102 8.079 C 99.080 6.758, 95.393 6.044, 91.500 6.044 C 87.787 6.044, 83.976 6.746, 81.500 7.886 M 86.358 9.906 C 84.630 10.345, 81.562 11.725, 79.541 12.975 C 77.519 14.224, 74.793 16.878, 73.481 18.873 C 72.170 20.868, 70.627 24.622, 70.052 27.216 C 69.322 30.508, 69.326 33.419, 70.062 36.855 C 70.743 40.027, 72.411 43.288, 74.753 46.025 C 76.753 48.361, 80.213 51.101, 82.444 52.114 C 84.710 53.143, 88.831 53.966, 91.782 53.978 C 94.687 53.990, 98.737 53.301, 100.782 52.447 C 102.827 51.593, 105.779 49.680, 107.342 48.197 C 108.904 46.714, 110.977 43.925, 111.947 42 C 112.917 40.075, 113.996 37.006, 114.344 35.181 C 114.693 33.356, 114.511 29.756, 113.940 27.181 C 113.370 24.606, 111.810 20.837, 110.474 18.805 C 109.138 16.773, 106.122 13.988, 103.772 12.616 C 101.423 11.244, 97.250 9.894, 94.500 9.616 C 91.750 9.337, 88.086 9.468, 86.358 9.906 M 87.325 14.459 C 85.579 15.219, 83.479 16.888, 82.657 18.170 C 81.835 19.451, 81.075 21.400, 80.966 22.500 C 80.858 23.600, 80.822 25.063, 80.885 25.750 C 80.948 26.438, 81.863 27, 82.918 27 C 84.141 27, 85.499 25.643, 86.668 23.250 C 87.991 20.542, 89.229 19.415, 91.124 19.196 C 92.576 19.027, 94.475 19.618, 95.374 20.517 C 96.268 21.411, 97 23.385, 97 24.904 C 97 26.929, 95.919 28.534, 92.947 30.922 C 89.235 33.905, 88.919 34.529, 89.197 38.331 C 89.425 41.460, 89.963 42.571, 91.380 42.840 C 92.414 43.036, 93.645 42.590, 94.115 41.848 C 94.585 41.107, 94.976 39.293, 94.985 37.817 C 94.995 35.991, 95.661 34.925, 97.069 34.478 C 98.207 34.117, 100.005 32.399, 101.065 30.661 C 102.125 28.922, 102.994 26.219, 102.996 24.654 C 102.998 23.089, 102.232 20.509, 101.294 18.920 C 100.356 17.332, 98.150 15.350, 96.393 14.516 C 94.636 13.682, 92.591 13.018, 91.849 13.039 C 91.107 13.061, 89.071 13.700, 87.325 14.459 M 89.958 48.550 C 88.901 49.824, 88.937 50.366, 90.158 51.587 C 90.990 52.418, 92.384 52.790, 93.322 52.430 C 94.245 52.076, 95 51.249, 95 50.593 C 95 49.937, 94.460 48.860, 93.800 48.200 C 93.140 47.540, 92.295 47, 91.922 47 C 91.550 47, 90.666 47.698, 89.958 48.550 M 36.491 54.865 C 34.287 55.867, 31.043 58.326, 29.284 60.330 C 27.524 62.334, 25.569 65.887, 24.939 68.227 C 24.309 70.566, 24.067 74.509, 24.400 76.990 C 24.735 79.480, 26.257 83.291, 27.798 85.500 C 29.333 87.700, 32.556 90.588, 34.961 91.917 C 38.123 93.665, 40.877 94.332, 44.916 94.328 C 48.054 94.325, 51.814 93.633, 53.500 92.747 C 55.150 91.880, 57.909 89.670, 59.630 87.835 C 61.352 86.001, 63.264 83.517, 63.880 82.316 C 64.496 81.114, 65 77.431, 65 74.131 C 65 70.830, 64.521 66.863, 63.936 65.315 C 63.351 63.767, 61.664 61.206, 60.186 59.624 C 58.709 58.042, 55.700 55.914, 53.500 54.896 C 51.300 53.877, 47.475 53.044, 45 53.044 C 42.525 53.044, 38.696 53.863, 36.491 54.865 M 130.235 55.528 C 126.341 57.500, 124.259 59.404, 122.235 62.847 C 119.994 66.660, 119.500 68.703, 119.500 74.164 C 119.500 79.960, 119.893 81.386, 122.514 85.116 C 124.171 87.474, 127.001 90.264, 128.801 91.316 C 130.601 92.367, 133.729 93.601, 135.752 94.057 C 137.929 94.548, 141.416 94.461, 144.294 93.843 C 147.187 93.223, 150.568 91.562, 152.638 89.745 C 154.552 88.064, 156.991 84.977, 158.059 82.885 C 159.328 80.397, 159.994 77.075, 159.984 73.290 C 159.972 69.158, 159.325 66.366, 157.725 63.542 C 156.492 61.364, 153.577 58.243, 151.247 56.606 C 148.029 54.344, 145.627 53.536, 141.255 53.246 C 136.523 52.931, 134.564 53.337, 130.235 55.528 M 30.591 100.573 C 28.441 101.361, 25.279 103.075, 23.565 104.383 C 21.851 105.690, 19.116 109.176, 17.488 112.130 C 14.745 117.105, 14.500 118.402, 14.160 129.773 C 13.900 138.469, 14.150 142.476, 15.019 143.523 C 16.047 144.762, 20.805 145, 44.551 145 C 68.951 145, 73.074 144.783, 74.429 143.429 C 75.671 142.186, 75.998 139.517, 75.990 130.679 C 75.982 121.072, 75.652 118.794, 73.642 114.479 C 72.356 111.718, 69.783 107.937, 67.924 106.078 C 66.065 104.219, 62.734 101.876, 60.522 100.871 C 57.379 99.443, 54.096 99.055, 45.500 99.092 C 38.555 99.123, 33.059 99.669, 30.591 100.573 M 125.591 100.573 C 123.441 101.361, 120.188 103.145, 118.363 104.537 C 116.538 105.929, 113.797 109.190, 112.272 111.784 C 109.704 116.152, 109.474 117.442, 109.149 129.276 C 108.900 138.334, 109.154 142.480, 110.021 143.526 C 111.047 144.762, 115.795 144.998, 139.372 144.985 C 155.444 144.976, 168.143 144.561, 169 144.017 C 170.206 143.251, 170.487 140.661, 170.434 130.782 C 170.387 121.973, 169.927 117.490, 168.809 114.927 C 167.952 112.962, 165.735 109.628, 163.882 107.519 C 162.030 105.409, 158.261 102.634, 155.507 101.351 C 151.225 99.357, 148.979 99.028, 140 99.080 C 133.520 99.118, 128.003 99.689, 125.591 100.573" stroke="none" fill="#050505" fill-rule="evenodd"/></svg>