<svg xmlns="http://www.w3.org/2000/svg" width="118" height="118" viewBox="0 0 118 118" version="1.1"><path d="M 61.409 5.766 L 34.319 6.032 31.909 8.594 C 29.689 10.954, 29.500 11.955, 29.500 21.324 L 29.500 31.493 34.820 32.146 C 38.006 32.537, 42.003 33.950, 44.785 35.671 C 47.340 37.250, 50.891 40.457, 52.675 42.797 C 54.460 45.136, 56.385 48.727, 56.954 50.775 C 57.523 52.824, 57.987 57.200, 57.985 60.500 C 57.982 64.691, 57.275 68.008, 55.642 71.500 C 54.355 74.250, 51.244 78.390, 48.728 80.700 C 45.683 83.496, 42.373 85.397, 38.827 86.387 C 35.897 87.205, 32.600 88.020, 31.500 88.197 C 29.759 88.479, 29.459 89.424, 29.183 95.510 C 29.009 99.355, 29.364 104.185, 29.972 106.244 C 30.706 108.733, 32.053 110.493, 33.989 111.494 C 36.418 112.750, 42.641 113, 71.500 113 C 99.910 113, 106.605 112.738, 108.928 111.537 C 110.485 110.732, 112.037 109.346, 112.379 108.455 C 112.720 107.565, 113 88.973, 113 67.140 L 113 27.445 101.750 16.914 C 95.563 11.123, 90.050 6.185, 89.500 5.942 C 88.950 5.699, 76.309 5.620, 61.409 5.766 M 19.399 35.906 C 17.143 36.931, 13.740 39.327, 11.836 41.231 C 9.931 43.135, 7.502 46.450, 6.437 48.597 C 5.040 51.411, 4.500 54.592, 4.500 60 C 4.500 66.380, 4.910 68.198, 7.249 72.176 C 8.761 74.748, 11.686 78.249, 13.749 79.955 C 15.812 81.661, 19.719 83.720, 22.432 84.529 C 25.144 85.338, 28.776 86, 30.503 86 C 32.231 86, 35.696 85.301, 38.205 84.446 C 40.714 83.591, 44.681 81.253, 47.019 79.251 C 49.358 77.249, 52.332 73.336, 53.626 70.556 C 55.107 67.376, 55.982 63.645, 55.985 60.500 C 55.987 57.750, 55.523 53.824, 54.954 51.775 C 54.385 49.727, 52.467 46.146, 50.692 43.818 C 48.854 41.409, 45.161 38.383, 42.118 36.793 C 37.809 34.542, 35.484 34.004, 30.136 34.022 C 25.839 34.036, 22.054 34.700, 19.399 35.906 M 22.748 38.367 C 20.684 39.136, 17.468 40.931, 15.600 42.356 C 13.733 43.780, 11.187 47.049, 9.942 49.619 C 8.372 52.864, 7.697 56.030, 7.734 59.977 C 7.768 63.624, 8.510 67.068, 9.802 69.581 C 10.910 71.737, 13.096 74.714, 14.658 76.197 C 16.221 77.680, 19.173 79.593, 21.218 80.447 C 23.263 81.301, 27.215 82, 30 82 C 32.785 82, 36.737 81.303, 38.782 80.451 C 40.827 79.599, 44.207 77.239, 46.293 75.206 C 48.834 72.730, 50.595 69.762, 51.625 66.218 C 52.635 62.745, 52.923 59.478, 52.463 56.713 C 52.078 54.396, 51.089 51.150, 50.265 49.500 C 49.440 47.850, 47.806 45.444, 46.633 44.153 C 45.460 42.862, 42.755 40.911, 40.622 39.817 C 38.490 38.724, 34.440 37.635, 31.622 37.399 C 28.621 37.147, 24.946 37.548, 22.748 38.367 M 28.380 48.452 C 28.074 49.251, 28.114 50.376, 28.470 50.952 C 28.827 51.528, 29.718 52, 30.452 52 C 31.186 52, 32.024 51.380, 32.315 50.622 C 32.606 49.864, 32.339 48.739, 31.722 48.122 C 31.105 47.505, 30.226 47, 29.769 47 C 29.311 47, 28.686 47.653, 28.380 48.452 M 28.457 55.250 C 28.158 56.030, 28.046 60.455, 28.207 65.084 C 28.440 71.768, 28.809 73.500, 30 73.500 C 31.227 73.500, 31.500 71.787, 31.500 64.083 C 31.500 57.441, 31.132 54.544, 30.251 54.250 C 29.563 54.021, 28.756 54.471, 28.457 55.250" stroke="none" fill="#040505" fill-rule="evenodd"/></svg>