<svg xmlns="http://www.w3.org/2000/svg" width="114" height="115" viewBox="0 0 114 115" version="1.1"><path d="M 30.229 6.669 C 29.530 6.951, 28.292 8.468, 27.479 10.041 C 26.437 12.055, 26 16.146, 26 23.881 C 26 34.492, 25.925 34.872, 23.759 35.180 C 22.495 35.361, 20.946 36.698, 20.205 38.250 C 19.482 39.763, 18.267 41, 17.504 41 C 16.742 41, 15.840 40.550, 15.500 40 C 15.160 39.450, 14.334 39, 13.664 39 C 12.994 39, 10.953 40.364, 9.128 42.031 C 6.777 44.178, 6.016 45.562, 6.518 46.781 C 6.908 47.726, 7.442 49.243, 7.704 50.152 C 8.021 51.247, 7.224 52.261, 5.341 53.160 C 2.889 54.330, 2.458 55.170, 2.194 59.290 C 1.903 63.824, 2.042 64.119, 4.944 65.130 C 6.625 65.716, 8 66.833, 8 67.611 C 8 68.390, 7.437 69.946, 6.750 71.069 C 5.640 72.884, 5.920 73.499, 9.265 76.583 C 12.347 79.425, 13.378 79.868, 14.949 79.027 C 16.005 78.462, 17.474 78, 18.215 78 C 18.956 78, 20.071 79.350, 20.694 81 C 21.454 83.013, 22.513 84, 23.913 84 C 25.902 84, 26 84.515, 26 94.944 C 26 105.070, 26.180 106.098, 28.412 108.694 L 30.825 111.500 65.662 111.792 C 84.823 111.952, 101.524 111.828, 102.775 111.516 C 104.027 111.204, 105.939 110.061, 107.025 108.975 C 108.926 107.074, 108.999 105.508, 108.983 67.250 L 108.965 27.500 97.414 16.750 L 85.862 6 58.681 6.079 C 43.732 6.122, 30.928 6.388, 30.229 6.669 M 22.820 40.230 C 22.621 41.616, 21.441 42.831, 19.701 43.440 C 17.758 44.121, 16.341 44.070, 15.066 43.273 C 13.565 42.336, 12.857 42.525, 11.186 44.313 C 9.399 46.227, 9.316 46.735, 10.529 48.383 C 11.714 49.993, 11.700 50.679, 10.431 53.133 C 9.559 54.820, 8.136 56, 6.974 56 C 5.455 56, 5 56.679, 5 58.945 C 5 61.174, 5.669 62.210, 7.750 63.203 C 9.608 64.089, 10.605 65.424, 10.822 67.318 C 10.999 68.860, 10.664 70.700, 10.076 71.409 C 9.287 72.359, 9.532 73.171, 11.008 74.507 C 12.677 76.018, 13.431 76.125, 15.561 75.154 C 17.396 74.318, 18.674 74.290, 20.105 75.056 C 21.200 75.642, 22.513 77.219, 23.023 78.561 C 23.671 80.266, 24.718 81, 26.500 81 C 28.282 81, 29.329 80.266, 29.977 78.561 C 30.487 77.219, 31.800 75.642, 32.895 75.056 C 34.326 74.290, 35.604 74.318, 37.439 75.154 C 39.569 76.125, 40.323 76.018, 41.992 74.507 C 43.468 73.171, 43.713 72.359, 42.924 71.409 C 42.336 70.700, 42.001 68.860, 42.178 67.318 C 42.395 65.424, 43.392 64.089, 45.250 63.203 C 47.308 62.221, 48 61.168, 48 59.015 C 48 56.802, 47.486 56.065, 45.770 55.820 C 44.384 55.621, 43.169 54.441, 42.560 52.701 C 41.883 50.768, 41.929 49.343, 42.710 48.093 C 43.619 46.637, 43.437 45.882, 41.778 44.222 C 40.118 42.563, 39.363 42.381, 37.907 43.290 C 36.657 44.071, 35.232 44.117, 33.299 43.440 C 31.559 42.831, 30.379 41.616, 30.180 40.230 C 29.922 38.429, 29.214 38, 26.500 38 C 23.786 38, 23.078 38.429, 22.820 40.230 M 23.942 47.022 C 22.534 47.408, 20.402 48.250, 19.202 48.892 C 18.002 49.534, 16.341 51.374, 15.510 52.980 C 14.680 54.586, 14 57.776, 14 60.068 C 14 63.575, 14.615 64.850, 17.882 68.118 C 21.299 71.534, 22.333 72, 26.500 72 C 30.667 72, 31.701 71.534, 35.118 68.118 C 38.385 64.850, 39 63.575, 39 60.068 C 39 57.776, 38.320 54.586, 37.490 52.980 C 36.659 51.374, 35.021 49.547, 33.850 48.920 C 32.679 48.293, 30.546 47.452, 29.111 47.050 C 27.675 46.648, 25.349 46.636, 23.942 47.022" stroke="none" fill="#050505" fill-rule="evenodd"/></svg>