<svg xmlns="http://www.w3.org/2000/svg" xml:space="preserve" width="210mm" height="47.202" style="shape-rendering:geometricPrecision;text-rendering:geometricPrecision;image-rendering:optimizeQuality;fill-rule:evenodd;clip-rule:evenodd" viewBox="0 0 12977.39 771.77">
  <path d="M334.64 468.88 151.98 747.75H0V25.47h151.98V488.4L485.23 25.47h184.06L430.85 350.36l105.97 178.48c19.52 26.96 40.44 45.09 62.75 54.39 15.8 6.51 35.32 9.76 58.56 9.76h50.2v154.78h-62.75c-28.82 0-52.05-2.32-69.71-6.97-22.31-5.58-44.15-15.81-65.54-30.68-23.24-17.66-48.34-43.23-75.29-76.7l-100.4-164.53zm780.84 278.88H973.25V25.48h142.23zm861.72-294.22 44.62 75.29c15.8 26.03 35.79 44.16 59.96 54.39 16.73 6.51 37.18 9.76 61.35 9.76h50.2v154.78h-62.75c-30.68 0-54.84-1.86-72.5-5.58-26.03-5.57-49.73-15.8-71.12-30.68q-34.86-26.49-66.93-78.09l-111.55-181.27h-9.76c-52.99 0-93.42 3.26-121.31 9.76-22.31 4.65-49.27 15.34-80.87 32.07v253.78h-146.41V25.47h465.72c43.69 0 82.73 9.29 117.12 27.89 34.4 18.59 73.43 27.89 80.87 78.08s46.48 59.49 29.28 111.55c0 53.92-14.18 98.31-42.52 133.17-28.35 34.86-42.52 79.25-123.4 77.38m-178.48-145.01h117.12c23.24 0 42.53-6.04 57.87-18.13 15.34-12.08 34.63-18.13 23.01-51.59 0-28.82-11.15-48.34-33.47-58.56-15.8-7.44-39.97-11.15-72.51-11.15h-294.21v181.27c51.12-27.89 118.52-41.84 202.18-41.84zm1009.52 461.54h-2.79c-105.97 0-188.7-24.63-248.2-73.9-66-52.06-99.01-129.21-99.01-231.47V25.47h143.62V464.7c0 58.57 19.06 100.4 57.17 125.5 32.54 23.24 81.8 34.86 147.8 34.86s115.26 11.62 149.2-34.86c37.18-25.1 55.77-66.93 55.77-125.5V25.47h143.62V464.7c0 102.26-32.54 179.41-97.61 231.47-60.43 49.27-143.62 73.9-249.59 73.9zm577.27-744.59h179.87l436.44 501.97V25.48h143.62v722.28h-143.62l-401.58-469.91v469.91h-143.62V132.84l-71.11-107.37zm1510.1 482.45h19.52L4774.3 240.21l-171.51 330.47c31.6-16.73 67.39-30.21 107.36-40.44 57.64-14.87 119.45-22.31 185.45-22.31zM4700.4 99.38l-47.41-90.63h154.78l390.42 739.01h-157.56L4983.46 639h-86.45c-54.84 0-112.95 6.51-174.3 19.52-52.06 10.23-99.46 24.17-142.23 41.83-39.04 14.87-62.74 27.89-71.11 39.04l-4.18 8.37H4354.6zm1240.99 389.03v114.34h453.17v145.01h-595.4V25.48h568.9V169.1h-426.68v175.69c28.82-16.73 63.68-28.35 104.57-34.85 31.61-4.65 72.04-6.97 121.31-6.97h105.97v143.62h-105.97c-64.14-.01-110.62 2.78-139.44 8.36-25.1 4.65-53.92 15.8-86.45 33.46zm1030.44 0-206.37 259.35h-196.61l306.76-382.05-266.33-340.22h196.61l170.12 217.52 174.3-217.52h191.03l-270.51 338.83 301.19 383.45h-195.21l-204.97-259.36zm779.45-319.31v216.13c28.82-16.73 64.14-28.36 105.97-34.87 31.61-4.65 72.04-6.97 121.31-6.97h64.14c39.04 0 66.46-5.57 82.26-16.73 21.38-13.01 32.07-37.65 32.07-73.9 0-32.54-11.62-55.31-34.86-68.32-17.66-10.23-44.15-15.34-79.48-15.34h-291.42zm0 578.66h-142.23V25.48h458.74c46.48 0 87.38 9.29 122.7 27.89 35.32 18.59 76.23 27.89 82.97 80.18s47.65 61.58 29.98 120.61c0 71.58-23.24 128.28-69.72 170.12-46.48 41.83-69.72 98.54-191.03 62.75h-64.14c-64.15 0-110.62 2.79-139.44 8.36-26.03 4.65-55.31 15.81-87.84 33.47v218.92zm1335.81 0h-532.65V25.48h149.2v577.27h383.45zm842.2-366.72c0-51.12-13.94-95.28-41.83-132.46q-36.255-48.81-101.79-75.3c-39.97-15.8-84.13-23.7-132.47-23.7s-92.5-7.9-133.86 25.1q-65.535 26.49-101.79 78.09-40.44 55.77-40.44 133.86c0 52.06-13.48 96.68 41.83 133.86q36.255 50.19 101.79 78.09c40.9 16.73 85.06 25.1 132.46 25.1s91.56 8.37 133.86-27.89q64.14-29.28 101.79-82.26c26.96-38.12 40.43-82.27 40.43-132.47zm150.59-1.39c0 79.01-20.92 149.2-62.75 210.55-38.11 56.71-90.63 101.32-157.56 133.86-64.14 30.68-133.4 46.01-207.76 46.01s-143.62 15.34-207.76-46.01c-66-31.61-118.06-75.3-156.17-131.07-40.9-61.35-61.35-131.07-61.35-209.15s-20.45-147.8 62.75-207.76c38.11-55.78 90.63-99.01 157.56-129.68 64.14-29.74 133.4-44.62 207.76-44.62 74.37 0 143.62-14.87 206.37 41.83 66 29.75 118.06 72.04 156.17 126.89 41.83 59.49 62.75 129.21 62.75 209.16zm792 73.9 44.62 75.29c15.8 26.03 35.79 44.16 59.96 54.39 16.73 6.51 37.18 9.76 61.35 9.76h50.2v154.78h-62.75c-30.68 0-54.84-1.86-72.51-5.58-26.03-5.57-49.73-15.8-71.11-30.68q-34.86-26.49-66.93-78.09l-111.55-181.27h-9.76c-52.98 0-93.42 3.26-121.31 9.76-22.31 4.65-49.27 15.34-80.87 32.07v253.78h-146.41V25.48h465.72c43.69 0 82.73 9.29 117.12 27.89 34.4 18.59 73.43 27.89 80.87 78.08s46.48 59.49 29.28 111.55c0 53.92-14.18 98.31-42.53 133.17s-42.53 79.25-123.4 77.38zm-178.48-145.01h117.12c23.24 0 42.53-6.04 57.87-18.13 15.34-12.08 34.62-18.13 23.01-51.59 0-28.82-11.15-48.34-33.46-58.56-15.8-7.44-39.97-11.15-72.51-11.15h-294.21v181.27c51.12-27.89 118.52-41.84 202.18-41.84m815.7 179.87v114.34h453.17v145.01h-595.4V25.48h568.9V169.1h-426.68v175.69c28.82-16.73 63.68-28.35 104.58-34.85 31.61-4.65 72.04-6.97 121.31-6.97h105.97v143.62h-105.97c-64.15-.01-110.62 2.78-139.44 8.36-25.1 4.65-53.92 15.8-86.45 33.46zm1252.15-34.86 44.62 75.29c15.81 26.03 35.79 44.16 59.96 54.39 16.73 6.51 37.18 9.76 61.35 9.76h50.2v154.78h-62.75c-30.68 0-54.84-1.86-72.51-5.58-26.03-5.57-49.73-15.8-71.11-30.68q-34.86-26.49-66.93-78.09l-111.55-181.27h-9.76c-52.98 0-93.42 3.26-121.31 9.76-22.31 4.65-49.26 15.34-80.87 32.07v253.78h-146.41V25.48h465.72c43.69 0 82.73 9.29 117.13 27.89 34.4 18.59 73.44 27.89 80.87 78.08s46.48 59.49 29.28 111.55c0 53.92-14.18 98.31-42.53 133.17s-42.53 79.25-123.4 77.38m-178.48-145.01h117.12c23.24 0 42.53-6.04 57.87-18.13 15.34-12.08 34.62-18.13 23.01-51.59 0-28.82-11.15-48.34-33.46-58.56-15.8-7.44-39.97-11.15-72.51-11.15h-294.21v181.27c51.12-27.89 118.51-41.84 202.18-41.84" style="fill:#003d8f"/>
</svg>
